<svg id="Layer_2" height="512" viewBox="0 0 128 128" width="512" xmlns="http://www.w3.org/2000/svg" data-name="Layer 2"><g fill="rgb(0,0,0)"><path d="m111.711.149a1.742 1.742 0 0 0 -1.885.307l-5.413 4.928-5.413-4.928a1.751 1.751 0 0 0 -2.356 0l-5.41 4.927-5.402-4.926a1.752 1.752 0 0 0 -2.358 0l-5.407 4.926-5.404-4.926a1.749 1.749 0 0 0 -2.357 0l-5.406 4.925-5.4-4.925a1.75 1.75 0 0 0 -2.358 0l-5.4 4.925-5.401-4.925a1.751 1.751 0 0 0 -2.359 0l-5.4 4.925-5.407-4.925a1.75 1.75 0 0 0 -2.929 1.293v38.28h-13.246a1.75 1.75 0 0 0 -1.75 1.75v76.968a9.26 9.26 0 0 0 9.25 9.252h79a9.26 9.26 0 0 0 9.25-9.25v-117a1.751 1.751 0 0 0 -1.039-1.601zm-92.965 118.6v-75.219h11.5v75.218a5.75 5.75 0 0 1 -11.5 0zm90.508 0a5.757 5.757 0 0 1 -5.75 5.75h-71.767a9.332 9.332 0 0 0 2.009-5.75v-113.036l3.654 3.33a1.75 1.75 0 0 0 2.358 0l5.4-4.925 5.4 4.925a1.751 1.751 0 0 0 2.359 0l5.4-4.925 5.405 4.925a1.749 1.749 0 0 0 2.357 0l5.4-4.925 5.405 4.925a1.751 1.751 0 0 0 2.357 0l5.406-4.926 5.4 4.925a1.751 1.751 0 0 0 2.357 0l5.409-4.927 5.414 4.927a1.752 1.752 0 0 0 2.356 0l3.663-3.334z"/><path d="m74.356 49.566h-10.712a1.75 1.75 0 0 0 0 3.5h6.106v3.8a1.75 1.75 0 0 0 3.5 0v-3.8h1.106a6.758 6.758 0 0 0 6.75-6.75v-2.505a6.758 6.758 0 0 0 -6.75-6.75h-5.712a3.254 3.254 0 0 1 -3.25-3.25v-2.511a3.254 3.254 0 0 1 3.25-3.25h10.712a1.75 1.75 0 0 0 0-3.5h-6.106v-3.8a1.75 1.75 0 0 0 -3.5 0v3.8h-1.106a6.758 6.758 0 0 0 -6.75 6.75v2.507a6.758 6.758 0 0 0 6.75 6.75h5.712a3.254 3.254 0 0 1 3.25 3.25v2.505a3.254 3.254 0 0 1 -3.25 3.254z"/><path d="m49.132 65.121h-7.132a1.75 1.75 0 0 0 -1.75 1.75v7.136a1.75 1.75 0 0 0 1.75 1.75h7.136a1.75 1.75 0 0 0 1.75-1.75v-7.136a1.75 1.75 0 0 0 -1.754-1.75zm-1.75 7.136h-3.636v-3.636h3.636z"/><path d="m49.132 84.781h-7.132a1.75 1.75 0 0 0 -1.75 1.75v7.136a1.75 1.75 0 0 0 1.75 1.75h7.136a1.75 1.75 0 0 0 1.75-1.75v-7.136a1.75 1.75 0 0 0 -1.754-1.75zm-1.75 7.136h-3.636v-3.636h3.636z"/><path d="m49.132 104.44h-7.132a1.751 1.751 0 0 0 -1.75 1.75v7.136a1.75 1.75 0 0 0 1.75 1.75h7.136a1.75 1.75 0 0 0 1.75-1.75v-7.136a1.751 1.751 0 0 0 -1.754-1.75zm-1.75 7.136h-3.636v-3.636h3.636z"/><path d="m101 65.121h-43.413a1.75 1.75 0 0 0 0 3.5h43.413a1.75 1.75 0 0 0 0-3.5z"/><path d="m57.587 75.757h21.769a1.75 1.75 0 0 0 0-3.5h-21.769a1.75 1.75 0 1 0 0 3.5z"/><path d="m101 84.781h-43.413a1.75 1.75 0 1 0 0 3.5h43.413a1.75 1.75 0 1 0 0-3.5z"/><path d="m57.587 95.417h21.769a1.75 1.75 0 0 0 0-3.5h-21.769a1.75 1.75 0 0 0 0 3.5z"/><path d="m101 104.44h-43.413a1.75 1.75 0 1 0 0 3.5h43.413a1.75 1.75 0 1 0 0-3.5z"/><path d="m79.356 111.576h-21.769a1.75 1.75 0 0 0 0 3.5h21.769a1.75 1.75 0 0 0 0-3.5z"/></g></svg>